<?xml version="1.0" encoding="UTF-8" standalone="no"?>
<!-- Uploaded to: SVG Repo, www.svgrepo.com, Generator: SVG Repo Mixer Tools -->

<svg
   fill="#fff"
   version="1.1"
   id="Layer_1"
   width="150px"
   height="150px"
   viewBox="0 0 256 240"
   enable-background="new 0 0 256 240"
   xml:space="preserve"
   sodipodi:docname="expert.svg"
   inkscape:version="1.3.2 (091e20e, 2023-11-25, custom)"
   xmlns:inkscape="http://www.inkscape.org/namespaces/inkscape"
   xmlns:sodipodi="http://sodipodi.sourceforge.net/DTD/sodipodi-0.dtd"
   xmlns="http://www.w3.org/2000/svg"
   xmlns:svg="http://www.w3.org/2000/svg"><defs
   id="defs1" /><sodipodi:namedview
   id="namedview1"
   pagecolor="#000000"
   bordercolor="#000000"
   borderopacity="0.25"
   inkscape:showpageshadow="2"
   inkscape:pageopacity="0.0"
   inkscape:pagecheckerboard="0"
   inkscape:deskcolor="#d1d1d1"
   inkscape:zoom="5.529575"
   inkscape:cx="41.775362"
   inkscape:cy="84.183685"
   inkscape:window-width="2560"
   inkscape:window-height="1369"
   inkscape:window-x="-8"
   inkscape:window-y="-8"
   inkscape:window-maximized="1"
   inkscape:current-layer="Layer_1" />
<path
   d="m 127.4655,11.128998 c 18.383,0 33.286,14.903 33.286,33.286 0,18.383 -14.903,33.286 -33.286,33.286 -18.383,0 -33.285998,-14.903 -33.285998,-33.286 0,-18.383 14.901998,-33.286 33.285998,-33.286 z M 73.832502,135.884 c 0,-2.499 1.606,-4.194 4.194,-4.194 2.588,0 4.194,1.606 4.194,4.194 V 228.87 H 173.6895 v -92.986 c 0,-2.499 1.606,-4.194 4.194,-4.194 2.499,0 4.194,1.606 4.194,4.194 v 92.986 h 29.092 V 127.496 c 0,-22.934 -18.74,-41.585002 -41.585,-41.585002 h -8.388 l -24.451,38.015002 -2.945,-28.467002 4.016,-9.638 h -18.026 l 4.016,9.638 -3.123,28.645002 -24.451998,-38.193002 h -9.816 c -22.934,0 -41.585,18.740002 -41.585,41.585002 v 101.375 h 29.092 v -92.986 h -0.09 z"
   id="path1"
   sodipodi:nodetypes="ssssssssccsssccssccccccccssccccs"
   inkscape:label="expert" />
<path
   d="m 244.63989,50.795548 0.0482,-0.0254 c -0.0965,-0.0069 -0.20494,0.02096 -0.25257,-0.0117 0.0479,0.03322 0.14436,0.04016 0.20436,0.03709 z m -8.18822,-25.78013 -7.32337,-13.903861 v 0 c 0,0 -2.56438,-1.7108576 -4.03549,-0.936005 -1.0127,0.533405 -1.61937,1.545974 -1.70856,2.546206 -3.81844,8.191391 -8.54977,18.626094 -20.53479,24.938776 l -14.13184,7.443443 c -0.16906,0.08904 -0.36196,0.190649 -0.50664,0.32461 l -0.0726,0.03826 c -4.63013,2.438751 -6.53439,7.889358 -4.2481,12.230027 2.2863,4.340666 7.86982,5.876572 12.50044,3.437555 l 0.0726,-0.03826 c 0.16906,-0.08905 0.38579,-0.145438 0.55427,-0.234187 l 1.76046,-0.927259 17.05472,22.611564 11.22359,-7.759691 -3.00844,-4.249062 2.25686,-1.622207 -2.98584,-3.972206 -2.18478,1.584249 -10.1538,-13.077529 c 1.18177,-0.622457 2.2665,-1.136048 2.9775,-1.423566 11.50943,-4.935669 21.81564,-2.797886 30.04545,-1.385277 0.1085,0.02983 0.27639,0.0569 0.4084,0.07365 0.0965,0.0069 0.20495,-0.02097 0.25257,0.01169 0.52925,0.01 1.07117,-0.130703 1.5534,-0.384709 1.37467,-0.724055 1.55782,-3.651073 1.55782,-3.651073 v 0 l 0.0482,-0.02539 -7.27575,-13.813449 c 2.31532,-1.219508 3.25529,-3.938404 2.112,-6.109011 -1.09536,-2.196548 -3.893,-2.946791 -6.20832,-1.72728 z m 5.54473,20.761319 c -11.76377,-1.630297 -19.83169,-1.799881 -28.61591,1.701077 l -5.9101,-6.111836 c 8.38136,-5.616499 13.10152,-12.878416 18.71581,-24.247481 z"
   id="path1-1"
   inkscape:label="megaphone"
   style="stroke-width:1.01861" /></svg>
