<?xml version="1.0" encoding="UTF-8" standalone="no"?>
<!-- Uploaded to: SVG Repo, www.svgrepo.com, Generator: SVG Repo Mixer Tools -->

<svg
   fill="#fff"
   height="135px"
   width="150px"
   version="1.1"
   id="Layer_1"
   viewBox="0 0 512 512"
   xml:space="preserve"
   sodipodi:docname="plants.svg"
   inkscape:version="1.3.2 (091e20e, 2023-11-25, custom)"
   xmlns:inkscape="http://www.inkscape.org/namespaces/inkscape"
   xmlns:sodipodi="http://sodipodi.sourceforge.net/DTD/sodipodi-0.dtd"
   xmlns="http://www.w3.org/2000/svg"
   xmlns:svg="http://www.w3.org/2000/svg"><defs
   id="defs4" /><sodipodi:namedview
   id="namedview4"
   pagecolor="#000000"
   bordercolor="#000000"
   borderopacity="0.25"
   inkscape:showpageshadow="2"
   inkscape:pageopacity="0.0"
   inkscape:pagecheckerboard="0"
   inkscape:deskcolor="#d1d1d1"
   inkscape:zoom="4.3444444"
   inkscape:cx="33.375959"
   inkscape:cy="60.191816"
   inkscape:window-width="2560"
   inkscape:window-height="1369"
   inkscape:window-x="-8"
   inkscape:window-y="-8"
   inkscape:window-maximized="1"
   inkscape:current-layer="Layer_1" />
<g
   id="g2"
   transform="matrix(0.92668372,0,0,0.92668372,18.769431,18.768968)">
	<g
   id="g1">
		<path
   d="m 112.269,385.398 4.261,72.436 C 118.318,488.208 143.552,512 173.977,512 h 154.221 c 30.427,0 55.66,-23.793 57.446,-54.166 l 4.261,-72.436 z"
   id="path1" />
	</g>
</g>
<g
   id="g4"
   transform="matrix(0.92668372,0,0,0.92668372,18.769431,18.768968)">
	<g
   id="g3">
		<path
   d="m 384.88,244.173 c 14.093,-22.901 20.943,-49.311 20.943,-80.741 V 48.339 H 388.56 c -28.644,0 -54.897,9.291 -75.393,26.431 C 307.618,60.197 299.793,47.235 289.797,36.239 268.553,12.871 238.457,0 205.051,0 H 187.787 V 77.098 C 169.606,65.852 148.139,59.848 125.125,59.848 h -17.264 v 109.338 c 0,31.429 6.851,57.84 20.943,80.741 7.259,11.795 16.403,22.433 27.369,31.888 h -49.997 l 4.062,69.056 h 281.7 L 396,281.815 h -45.574 c 14.168,-10.825 25.683,-23.392 34.454,-37.642 z m -151.055,35.39 c -29.925,-18.621 -29.924,-38.7 -29.924,-52.831 v -62.586 c 6.14,2.332 11.538,5.992 15.999,10.898 9.111,10.021 13.925,24.71 13.925,42.481 z m 27.508,-166.588 c -8.867,9.754 -15.664,21.36 -20.289,34.451 -5.549,-5.226 -11.825,-9.572 -18.729,-12.916 V 36.12 c 30.207,5.792 51.997,27.102 61.267,59.066 -8.254,4.684 -15.752,10.641 -22.249,17.789 z m 82.772,128.058 c 3.213,-11.425 4.812,-23.797 4.812,-37.319 V 92.058 c 6.833,-3.56 14.314,-6.142 22.379,-7.643 v 79.017 c 0,24.853 -5.176,45.344 -15.822,62.645 -3.243,5.271 -7.047,10.252 -11.369,14.956 z"
   id="path2" />
	</g>
</g>
</svg>
