<?xml version="1.0" encoding="UTF-8" standalone="no"?>
<!-- Created with Inkscape (http://www.inkscape.org/) -->

<svg
   width="32"
   height="32"
   viewBox="0 0 32 32"
   version="1.1"
   id="svg1"
   xml:space="preserve"
   sodipodi:docname="favicon.svg"
   inkscape:version="1.3.2 (091e20e, 2023-11-25, custom)"
   xmlns:inkscape="http://www.inkscape.org/namespaces/inkscape"
   xmlns:sodipodi="http://sodipodi.sourceforge.net/DTD/sodipodi-0.dtd"
   xmlns="http://www.w3.org/2000/svg"
   xmlns:svg="http://www.w3.org/2000/svg"><sodipodi:namedview
     id="namedview1"
     pagecolor="#ffffff"
     bordercolor="#000000"
     borderopacity="0.25"
     inkscape:showpageshadow="2"
     inkscape:pageopacity="0.0"
     inkscape:pagecheckerboard="0"
     inkscape:deskcolor="#d1d1d1"
     inkscape:document-units="px"
     inkscape:zoom="16"
     inkscape:cx="16.15625"
     inkscape:cy="19.90625"
     inkscape:window-width="1350"
     inkscape:window-height="1237"
     inkscape:window-x="700"
     inkscape:window-y="166"
     inkscape:window-maximized="0"
     inkscape:current-layer="layer1" /><defs
     id="defs1"><inkscape:path-effect
       effect="fillet_chamfer"
       id="path-effect2"
       is_visible="true"
       lpeversion="1"
       nodesatellites_param="F,0,0,1,0,3.4698223e-07,0,1 @ F,0,0,1,0,21.636829,0,1 @ F,0,0,1,0,0,0,1 @ F,0,0,1,0,21.636829,0,1"
       radius="21.636829"
       unit="px"
       method="auto"
       mode="F"
       chamfer_steps="1"
       flexible="false"
       use_knot_distance="true"
       apply_no_radius="true"
       apply_with_radius="true"
       only_selected="false"
       hide_knots="false" /></defs><g
     inkscape:groupmode="layer"
     id="layer1"
     inkscape:label="Layer 1"><rect
       style="fill:#008c00;fill-opacity:1;stroke-width:5.5;stroke-linecap:round"
       id="rect1"
       width="33.625"
       height="36.25"
       x="-0.9375"
       y="-2.0625" /><path
       id="path12"
       style="fill:#000000;stroke-width:2.21209;stroke-linecap:round;fill-opacity:1"
       d="M 0,0 V 22.477541 C 0,27.724965 4.4430564,32 9.896725,32 H 32 V 9.5224587 C 32,4.2750331 27.556946,-2.4286085e-7 22.103275,0 Z M 2.0503175,1.9727804 H 22.103275 c 4.345696,-3e-7 7.846407,3.3683238 7.846407,7.5496783 V 30.027605 H 15.33755 V 26.90778 h -2.958396 v 3.119825 H 9.896725 c -4.3456964,0 -7.8464075,-3.368711 -7.8464075,-7.550064 z m 0.8533602,0.6294624 v 8.8399602 c 0,7.384922 7.9280823,7.342947 7.9280823,7.342947 h 8.59194 v -2.818637 h -8.11195 c -5.3964439,0 -5.4907152,-4.54173 -5.4907152,-4.54173 V 5.4092738 l 5.1213682,0.012387 c 5.276787,0.029401 5.546238,4.3291999 5.546238,4.3291999 H 9.6263534 V 12.575313 H 19.429735 V 9.7857026 C 19.522162,2.9229764 11.819099,2.6022428 11.819099,2.6022428 Z M 20.1636,9.7857026 v 2.8422594 h 8.109136 V 9.7857026 Z m -6.647035,3.4841094 c -0.486907,0.557878 -0.896812,2.012654 -0.896812,2.012654 h 3.087948 c 0.513468,-1.284526 1.921971,-2.006847 1.921971,-2.006847 z m 6.63738,2.696701 v 2.818637 h 5.828275 c 0,4.234112 -5.294373,4.269979 -5.294373,4.269979 H 15.33755 V 19.437847 H 12.379154 V 25.8699 l 8.786672,0.01045 c 7.827045,0 7.808186,-7.095198 7.808186,-7.095198 v -2.818643 z"
       sodipodi:nodetypes="csscssccsscccccssccscccccccccccccccccccccccccccccccccccc"
       inkscape:label="path" /></g></svg>
